<?xml version="1.0" standalone="no"?>
<!DOCTYPE svg PUBLIC "-//W3C//DTD SVG 20010904//EN"
 "http://www.w3.org/TR/2001/REC-SVG-20010904/DTD/svg10.dtd">
<svg version="1.0" xmlns="http://www.w3.org/2000/svg"
 width="857.000000pt" height="857.000000pt" viewBox="0 0 857.000000 857.000000"
 preserveAspectRatio="xMidYMid meet">
<metadata>
Created by potrace 1.11, written by Peter Selinger 2001-2013
</metadata>
<g transform="translate(0.000000,857.000000) scale(0.100000,-0.100000)"
fill="#000000" stroke="none">
<path d="M3955 8549 c-1794 -141 -3303 -1379 -3794 -3114 -65 -233 -120 -540
-142 -802 -17 -212 -6 -695 20 -893 79 -578 267 -1127 548 -1603 710 -1201
1912 -1969 3293 -2102 182 -18 595 -20 767 -5 1192 108 2246 674 2991 1605
490 614 799 1357 899 2165 22 184 25 739 5 925 -100 894 -445 1689 -1024 2360
-120 138 -371 384 -508 496 -701 575 -1519 901 -2430 969 -157 12 -467 11
-625 -1z m428 -1074 c80 -21 131 -49 190 -103 61 -58 90 -103 117 -181 19 -59
20 -82 20 -804 l0 -743 53 -19 c28 -10 81 -31 116 -47 l65 -29 520 520 c287
285 539 530 561 543 84 52 196 74 290 58 133 -22 256 -113 314 -232 59 -124
61 -242 5 -371 -25 -57 -70 -105 -556 -593 l-529 -530 27 -60 c15 -32 34 -81
44 -109 l17 -50 749 -6 c577 -4 758 -8 789 -18 75 -25 138 -63 190 -115 231
-232 120 -627 -200 -711 -51 -13 -166 -15 -791 -15 l-733 0 -7 -22 c-4 -13
-25 -65 -47 -116 l-40 -94 535 -536 c582 -585 565 -564 587 -702 43 -268 -178
-506 -452 -487 -65 4 -93 12 -156 43 -72 36 -104 65 -598 557 l-522 519 -113
-46 -113 -45 -5 -758 c-4 -513 -9 -768 -16 -788 -42 -114 -125 -208 -231 -258
-64 -30 -75 -32 -179 -32 -107 0 -112 1 -185 37 -93 46 -158 112 -202 206
l-32 67 -5 764 -5 764 -50 17 c-27 10 -76 29 -109 44 -32 14 -63 26 -70 26 -6
0 -247 -236 -536 -524 -368 -367 -538 -531 -570 -547 -177 -88 -377 -54 -511
88 -124 131 -149 309 -69 481 28 62 69 105 556 591 l525 525 -34 75 c-19 42
-40 93 -46 114 l-13 37 -736 0 c-592 0 -747 3 -788 14 -154 41 -279 168 -313
317 -58 248 115 490 371 520 40 4 386 8 769 9 l696 0 28 73 c15 39 37 89 47
111 l20 39 -530 531 c-577 578 -568 568 -593 709 -32 177 69 370 234 448 124
58 242 59 370 3 57 -25 104 -70 592 -556 l530 -528 95 40 c52 22 105 45 117
50 l23 9 2 763 3 763 33 68 c91 184 295 282 485 232z"/>
</g>
</svg>
